<mxfile host="app.diagrams.net" modified="2023-09-05T16:57:28.982Z" agent="Mozilla/5.0 (Macintosh; Intel Mac OS X 10_15_7) AppleWebKit/537.36 (KHTML, like Gecko) Chrome/116.0.0.0 Safari/537.36" etag="aSx93NjJeTLzqNhr00uZ" version="21.7.2" type="github">
  <diagram name="第 1 页" id="Zduq8fMRWNMd3kEKtpE4">
    <mxGraphModel dx="2026" dy="1157" grid="1" gridSize="10" guides="1" tooltips="1" connect="1" arrows="1" fold="1" page="1" pageScale="1" pageWidth="850" pageHeight="1100" math="0" shadow="0">
      <root>
        <mxCell id="0" />
        <mxCell id="1" parent="0" />
        <mxCell id="QOxY9AwFlRQwBTzi98YL-1" value="" style="rounded=0;whiteSpace=wrap;html=1;" vertex="1" parent="1">
          <mxGeometry x="50" y="400" width="240" height="240" as="geometry" />
        </mxCell>
        <mxCell id="QOxY9AwFlRQwBTzi98YL-3" value="Sprite" style="rounded=0;whiteSpace=wrap;html=1;fillColor=#f5f5f5;strokeColor=#666666;fontColor=#333333;" vertex="1" parent="1">
          <mxGeometry x="50" y="400" width="120" height="120" as="geometry" />
        </mxCell>
        <mxCell id="QOxY9AwFlRQwBTzi98YL-6" value="" style="rounded=0;whiteSpace=wrap;html=1;fillColor=#f5f5f5;fontColor=#333333;strokeColor=#666666;" vertex="1" parent="1">
          <mxGeometry x="480" y="400" width="240" height="240" as="geometry" />
        </mxCell>
        <mxCell id="QOxY9AwFlRQwBTzi98YL-8" value="Sprite" style="rounded=0;whiteSpace=wrap;html=1;strokeColor=#b85450;fillColor=#f8cecc;" vertex="1" parent="1">
          <mxGeometry x="490" y="410" width="100" height="100" as="geometry" />
        </mxCell>
        <mxCell id="QOxY9AwFlRQwBTzi98YL-14" value="Sprite" style="rounded=0;whiteSpace=wrap;html=1;fillColor=#f8cecc;strokeColor=#b85450;" vertex="1" parent="1">
          <mxGeometry x="60" y="410" width="100" height="100" as="geometry" />
        </mxCell>
        <mxCell id="QOxY9AwFlRQwBTzi98YL-16" value="Sprite" style="rounded=0;whiteSpace=wrap;html=1;strokeColor=#b85450;fillColor=#f8cecc;" vertex="1" parent="1">
          <mxGeometry x="610" y="410" width="100" height="100" as="geometry" />
        </mxCell>
        <mxCell id="QOxY9AwFlRQwBTzi98YL-17" value="Sprite" style="rounded=0;whiteSpace=wrap;html=1;strokeColor=#b85450;fillColor=#f8cecc;" vertex="1" parent="1">
          <mxGeometry x="490" y="530" width="100" height="100" as="geometry" />
        </mxCell>
        <mxCell id="QOxY9AwFlRQwBTzi98YL-18" value="Sprite" style="rounded=0;whiteSpace=wrap;html=1;strokeColor=#b85450;fillColor=#f8cecc;" vertex="1" parent="1">
          <mxGeometry x="610" y="530" width="100" height="100" as="geometry" />
        </mxCell>
        <mxCell id="QOxY9AwFlRQwBTzi98YL-19" value="Sprite" style="rounded=0;whiteSpace=wrap;html=1;fillColor=#f5f5f5;strokeColor=#666666;fontColor=#333333;" vertex="1" parent="1">
          <mxGeometry x="170" y="400" width="120" height="120" as="geometry" />
        </mxCell>
        <mxCell id="QOxY9AwFlRQwBTzi98YL-20" value="Sprite" style="rounded=0;whiteSpace=wrap;html=1;fillColor=#f8cecc;strokeColor=#b85450;" vertex="1" parent="1">
          <mxGeometry x="180" y="410" width="100" height="100" as="geometry" />
        </mxCell>
        <mxCell id="QOxY9AwFlRQwBTzi98YL-22" value="Sprite" style="rounded=0;whiteSpace=wrap;html=1;fillColor=#f5f5f5;strokeColor=#666666;fontColor=#333333;" vertex="1" parent="1">
          <mxGeometry x="50" y="520" width="120" height="120" as="geometry" />
        </mxCell>
        <mxCell id="QOxY9AwFlRQwBTzi98YL-23" value="Sprite" style="rounded=0;whiteSpace=wrap;html=1;fillColor=#f8cecc;strokeColor=#b85450;" vertex="1" parent="1">
          <mxGeometry x="60" y="530" width="100" height="100" as="geometry" />
        </mxCell>
        <mxCell id="QOxY9AwFlRQwBTzi98YL-24" value="Sprite" style="rounded=0;whiteSpace=wrap;html=1;fillColor=#f5f5f5;strokeColor=#666666;fontColor=#333333;" vertex="1" parent="1">
          <mxGeometry x="170" y="520" width="120" height="120" as="geometry" />
        </mxCell>
        <mxCell id="QOxY9AwFlRQwBTzi98YL-25" value="Sprite" style="rounded=0;whiteSpace=wrap;html=1;fillColor=#f8cecc;strokeColor=#b85450;" vertex="1" parent="1">
          <mxGeometry x="180" y="530" width="100" height="100" as="geometry" />
        </mxCell>
        <mxCell id="QOxY9AwFlRQwBTzi98YL-26" value="布局" style="text;html=1;strokeColor=none;fillColor=none;align=center;verticalAlign=middle;whiteSpace=wrap;rounded=0;" vertex="1" parent="1">
          <mxGeometry x="140" y="370" width="60" height="30" as="geometry" />
        </mxCell>
        <mxCell id="QOxY9AwFlRQwBTzi98YL-27" value="Sprite" style="rounded=0;whiteSpace=wrap;html=1;fillColor=#f5f5f5;strokeColor=#666666;fontColor=#333333;" vertex="1" parent="1">
          <mxGeometry x="300" y="520" width="120" height="120" as="geometry" />
        </mxCell>
        <mxCell id="QOxY9AwFlRQwBTzi98YL-28" value="Sprite" style="rounded=0;whiteSpace=wrap;html=1;fillColor=#f8cecc;strokeColor=#b85450;" vertex="1" parent="1">
          <mxGeometry x="310" y="530" width="100" height="100" as="geometry" />
        </mxCell>
        <mxCell id="QOxY9AwFlRQwBTzi98YL-29" value="Sprite" style="rounded=0;whiteSpace=wrap;html=1;strokeColor=#b85450;fillColor=#f8cecc;" vertex="1" parent="1">
          <mxGeometry x="730" y="540" width="100" height="100" as="geometry" />
        </mxCell>
        <mxCell id="QOxY9AwFlRQwBTzi98YL-30" value="布局" style="text;html=1;strokeColor=none;fillColor=none;align=center;verticalAlign=middle;whiteSpace=wrap;rounded=0;" vertex="1" parent="1">
          <mxGeometry x="570" y="370" width="60" height="30" as="geometry" />
        </mxCell>
        <mxCell id="QOxY9AwFlRQwBTzi98YL-31" value="方案 B" style="text;html=1;strokeColor=none;fillColor=none;align=center;verticalAlign=middle;whiteSpace=wrap;rounded=0;" vertex="1" parent="1">
          <mxGeometry x="50" y="640" width="60" height="30" as="geometry" />
        </mxCell>
        <mxCell id="QOxY9AwFlRQwBTzi98YL-32" value="方案 B" style="text;html=1;strokeColor=none;fillColor=none;align=center;verticalAlign=middle;whiteSpace=wrap;rounded=0;" vertex="1" parent="1">
          <mxGeometry x="480" y="640" width="60" height="30" as="geometry" />
        </mxCell>
        <mxCell id="QOxY9AwFlRQwBTzi98YL-33" value="单个素材" style="text;html=1;strokeColor=none;fillColor=none;align=center;verticalAlign=middle;whiteSpace=wrap;rounded=0;" vertex="1" parent="1">
          <mxGeometry x="330" y="490" width="60" height="30" as="geometry" />
        </mxCell>
        <mxCell id="QOxY9AwFlRQwBTzi98YL-34" value="单个素材" style="text;html=1;strokeColor=none;fillColor=none;align=center;verticalAlign=middle;whiteSpace=wrap;rounded=0;" vertex="1" parent="1">
          <mxGeometry x="750" y="510" width="60" height="30" as="geometry" />
        </mxCell>
      </root>
    </mxGraphModel>
  </diagram>
</mxfile>
